PathFileType	4	(X/Y/Z)	S1_nor_fast_right.trc
DataRate	CameraRate	NumFrames	NumMarkers	Units	OrigDataRate	OrigDataStartFrame	OrigNumFrames
250.00	250.00	18	18	mm	250.00	1631	6523
Frame#	Time	c7	r_should	l_should	clavicle	r_upa	r_elb_l	r_elb_m	r_low	r_wri_l	r_wri_m	r_met	l_upa	l_elb_l	l_elb_m	l_low	l_wri_l	l_wri_m	l_met
	X1	Y1	Z1	X2	Y2	Z2	X3	Y3	Z3	X4	Y4	Z4	X5	Y5	Z5	X6	Y6	Z6	X7	Y7	Z7	X8	Y8	Z8	X9	Y9	Z9	X10	Y10	Z10	X11	Y11	Z11	X12	Y12	Z12	X13	Y13	Z13	X14	Y14	Z14	X15	Y15	Z15	X16	Y16	Z16	X17	Y17	Z17	X18	Y18	Z18
1631	6.52000	924.71790	1417.70105	172.42032	1004.73773	1347.41052	342.33566	968.26025	1367.92944	-27.61580	1067.34583	1304.49939	144.85133	966.07147	1145.58337	399.12204	975.65979	1070.91931	408.87741	934.12402	1030.90149	332.07703	1041.93860	963.37476	382.66217	1150.62695	971.92053	393.52649	nan	nan	nan	1216.92542	915.77386	397.74133	968.45801	1145.45264	-71.26998	975.42828	1060.70349	-85.79474	914.67023	1035.96118	-4.12188	930.51752	917.63666	-95.09760	1007.79498	828.06134	-87.09833	934.69098	816.85364	-89.60217	1020.91180	750.50720	-110.48426
1632	6.52400	924.58502	1417.68652	172.47099	1004.50110	1347.43921	342.40723	968.19910	1367.95752	-27.54962	1067.24292	1304.53015	144.94514	965.85211	1145.62231	399.18991	975.51123	1071.32263	408.86133	934.24438	1030.96826	332.01505	1042.73486	964.64722	382.45325	1151.31689	974.59021	393.44781	nan	nan	nan	1218.45752	919.20398	397.36240	968.42987	1145.47412	-71.18906	975.39532	1060.71973	-85.72179	914.63763	1035.97937	-4.03820	930.50299	917.65436	-95.01773	1007.79071	828.08997	-87.00311	934.68707	816.87360	-89.52419	1020.92242	750.12042	-110.02306
1633	6.52800	924.45227	1417.66846	172.53351	1004.27246	1347.45837	342.48380	968.13403	1367.98523	-27.47506	1067.15149	1304.55396	145.04443	965.65710	1145.65137	399.24698	975.35132	1071.71082	408.83249	934.38477	1031.02759	331.92505	1043.61084	965.90253	382.18823	1152.01526	977.27069	393.30228	nan	nan	nan	1219.92249	922.65326	397.02435	968.39691	1145.49231	-71.10440	975.36493	1060.73926	-85.64256	914.59979	1036.00940	-3.96538	930.48682	917.67401	-94.93508	1007.78021	828.10986	-86.90401	934.67767	816.89117	-89.44591	1020.92181	750.03827	-109.81973
1634	6.53200	924.32104	1417.65381	172.61050	1004.05096	1347.47485	342.56055	968.07172	1368.00964	-27.39667	1067.05908	1304.58179	145.13927	965.48950	1145.66296	399.29306	975.19647	1072.08264	408.79050	934.55518	1031.09045	331.83069	1044.40527	967.19812	381.95215	1152.74475	979.90143	393.10242	nan	nan	nan	1221.27734	926.20740	396.80527	968.36127	1145.51392	-71.02581	975.34143	1060.76282	-85.55762	914.56360	1036.03406	-3.88823	930.46851	917.70050	-94.85630	1007.77051	828.12653	-86.80827	934.66394	816.91895	-89.36576	1020.91730	750.04083	-109.68850
1635	6.53600	924.18994	1417.63855	172.67960	1003.83881	1347.49377	342.63788	968.00977	1368.04358	-27.32582	1066.96838	1304.61108	145.22940	965.34143	1145.65552	399.32062	975.06628	1072.44983	408.75229	934.74939	1031.15552	331.72693	1045.08545	968.57269	381.77463	1153.42188	982.57227	392.93011	nan	nan	nan	1222.62744	929.80072	396.55072	968.32654	1145.54578	-70.95108	975.31464	1060.79456	-85.46252	914.53241	1036.06482	-3.81019	930.45081	917.72473	-94.77319	1007.76050	828.15149	-86.70965	934.65399	816.94867	-89.28587	1020.91406	750.05719	-109.57108
1636	6.54000	924.06555	1417.63501	172.74719	1003.64459	1347.50220	342.71356	967.93353	1368.08228	-27.24459	1066.87817	1304.63745	145.30920	965.20551	1145.63391	399.33841	974.95148	1072.81848	408.71768	934.94525	1031.21802	331.62167	1045.57605	970.04382	381.69107	1154.03528	985.29767	392.75870	nan	nan	nan	1224.04272	933.36462	396.19983	968.28638	1145.58008	-70.87190	975.28381	1060.83105	-85.37330	914.49640	1036.09973	-3.72333	930.42676	917.75531	-94.68610	1007.75073	828.18317	-86.60934	934.68915	816.95459	-89.11824	1020.90527	750.08350	-109.45116
1637	6.54400	923.94922	1417.62244	172.83011	1003.45959	1347.51111	342.79440	967.85400	1368.11780	-27.16172	1066.78894	1304.66870	145.39166	965.09290	1145.61157	399.35303	974.86102	1073.20813	408.67728	935.16064	1031.25061	331.51193	1045.99561	971.53619	381.63565	1154.72913	987.97736	392.54102	nan	nan	nan	1225.49438	936.91956	395.83643	968.24310	1145.61377	-70.79956	975.24646	1060.86255	-85.27988	914.45471	1036.12817	-3.62828	930.40253	917.78180	-94.59573	1007.73621	828.21765	-86.51346	934.72491	816.95428	-88.91717	1020.89453	750.11169	-109.32909
1638	6.54800	923.83636	1417.60376	172.90475	1003.27966	1347.52466	342.87735	967.77246	1368.16370	-27.07535	1066.70398	1304.69958	145.47325	964.99762	1145.58191	399.36923	974.80084	1073.59766	408.63855	935.40900	1031.27490	331.39493	1046.37927	973.54932	381.76459	1155.27148	990.35657	391.97147	nan	nan	nan	1226.91602	940.50006	395.45560	968.19708	1145.64661	-70.72115	975.20282	1060.89868	-85.18340	914.41956	1036.15259	-3.54148	930.37677	917.80878	-94.50689	1007.72455	828.25409	-86.41685	934.61273	817.00989	-88.97113	1020.88263	750.14600	-109.22401
1639	6.55200	923.73230	1417.58850	172.99284	1003.10742	1347.54358	342.95679	967.69202	1368.21008	-26.98771	1066.62646	1304.73132	145.55177	964.90784	1145.54822	399.35742	974.76648	1073.96936	408.59531	935.67291	1031.29895	331.25162	1047.53394	975.86072	381.74890	1155.70972	992.69757	391.31589	nan	nan	nan	1228.35266	944.10162	395.06213	968.15045	1145.68591	-70.63950	975.16345	1060.93481	-85.09023	914.38519	1036.18286	-3.45992	930.35077	917.83777	-94.40965	1007.71497	828.29279	-86.32143	934.56494	817.05548	-88.93052	1020.86328	750.17609	-109.10854
1640	6.55600	923.63086	1417.57373	173.08456	1002.94043	1347.55396	343.03445	967.61810	1368.25732	-26.90169	1066.55212	1304.76257	145.64174	964.84705	1145.51245	399.35797	974.73389	1074.33679	408.54483	935.95514	1031.31909	331.10361	1049.80273	976.76465	380.92780	1156.46655	995.62109	391.33221	nan	nan	nan	1229.67200	947.73444	394.77103	968.10095	1145.72815	-70.55764	975.12256	1060.96692	-84.99736	914.34460	1036.22144	-3.36691	930.32239	917.86725	-94.31593	1007.69482	828.33380	-86.22221	934.52716	817.09808	-88.85538	1020.84314	750.21368	-108.99737
1641	6.56000	923.53296	1417.55310	173.16809	1002.77283	1347.55896	343.11972	967.54865	1368.30090	-26.82282	1066.47864	1304.79407	145.71889	964.80914	1145.47546	399.36502	974.71423	1074.68701	408.47675	936.27911	1031.34607	330.95053	1051.04138	978.01373	380.54114	1156.85669	997.73462	390.41327	nan	nan	nan	1230.95984	951.38031	394.48874	968.04755	1145.76343	-70.47805	975.08289	1061.00098	-84.90883	914.29565	1036.25537	-3.27363	930.28540	917.90161	-94.21996	1007.66803	828.37213	-86.12628	934.49750	817.12335	-88.76663	1020.82422	750.24249	-108.88770
1642	6.56400	923.43732	1417.53442	173.26102	1002.60138	1347.56885	343.20746	967.47717	1368.34595	-26.74571	1066.40649	1304.81836	145.79404	964.78949	1145.43481	399.35236	974.72400	1075.03528	408.40656	936.61096	1031.37866	330.77817	1052.07666	979.33679	380.23044	1157.42444	1000.28528	390.01477	nan	nan	nan	1232.67700	954.89417	393.95071	967.98468	1145.79956	-70.39913	975.02472	1061.03491	-84.82645	914.24640	1036.28979	-3.18574	930.24622	917.93219	-94.12066	1007.63800	828.41010	-86.03528	934.45959	817.15082	-88.68096	1020.79724	750.27448	-108.77752
1643	6.56800	923.34540	1417.50732	173.35364	1002.43439	1347.57837	343.29172	967.41022	1368.38721	-26.65965	1066.34143	1304.84131	145.87521	964.77728	1145.36658	399.33176	974.73969	1075.38489	408.34210	936.95782	1031.41907	330.59567	1053.02893	980.68286	379.95868	1158.03381	1002.94409	389.72662	nan	nan	nan	1234.93579	958.18689	393.13187	967.91931	1145.83533	-70.32097	974.96521	1061.06311	-84.73871	914.19861	1036.33008	-3.09311	930.21094	917.96442	-94.02148	1007.61224	828.46271	-85.94744	934.42285	817.18646	-88.58230	1020.77411	750.31689	-108.68520
1644	6.57200	923.26495	1417.49170	173.45192	1002.27606	1347.58350	343.38672	967.35162	1368.43066	-26.57897	1066.28064	1304.87280	145.95192	964.78510	1145.30225	399.32236	974.77271	1075.73022	408.27866	937.30945	1031.46252	330.44147	1053.96985	982.00745	379.69556	1158.65833	1005.64514	389.48267	nan	nan	nan	1236.14209	961.92450	392.79431	967.86078	1145.87524	-70.24299	974.91217	1061.09277	-84.65434	914.15570	1036.36243	-3.00307	930.16675	917.99957	-93.92710	1007.58698	828.51501	-85.85855	934.39355	817.21661	-88.48634	1020.74921	750.35571	-108.58333
1645	6.57600	923.18127	1417.48059	173.54803	1002.13062	1347.59241	343.47211	967.29242	1368.48193	-26.49833	1066.22339	1304.89624	146.02968	964.82123	1145.25366	399.31906	974.83441	1076.06860	408.21039	937.64661	1031.48254	330.28894	1054.88684	983.33929	379.47772	1159.26025	1008.36469	389.26288	nan	nan	nan	1237.09485	965.83752	392.56699	967.79541	1145.91675	-70.15755	974.85376	1061.12463	-84.57476	914.11407	1036.40173	-2.91308	930.11316	918.04382	-93.83500	1007.55573	828.56677	-85.77244	934.35107	817.26404	-88.38763	1020.71765	750.39349	-108.47578
1646	6.58000	923.10107	1417.46436	173.65381	1001.98962	1347.60291	343.55701	967.23047	1368.53479	-26.40899	1066.16309	1304.91821	146.10359	964.85638	1145.17981	399.28442	974.93231	1076.42456	408.14093	937.99976	1031.48865	330.14169	1055.78479	984.67395	379.30328	1159.86682	1011.07452	389.03299	nan	nan	nan	1237.98279	969.76929	392.41345	967.72681	1145.97217	-70.07716	974.79358	1061.16223	-84.49470	914.06372	1036.45032	-2.82030	930.06018	918.09235	-93.74131	1007.51593	828.63245	-85.69930	934.30328	817.31500	-88.29469	1020.68219	750.43335	-108.37227
1647	6.58400	923.02106	1417.44629	173.77448	1001.85718	1347.60706	343.64874	967.17267	1368.59314	-26.31820	1066.11072	1304.95312	146.18652	964.90784	1145.10510	399.24686	975.03943	1076.77979	408.08218	938.36346	1031.47998	330.00604	1056.67017	986.02051	379.16086	1160.46057	1013.80017	388.80759	1233.95117	1079.93494	273.69754	1238.81946	973.69702	392.25720	967.66174	1146.02661	-69.99799	974.73108	1061.20544	-84.41174	914.01312	1036.49438	-2.72883	930.00916	918.14099	-93.64734	1007.47357	828.72058	-85.63775	934.25604	817.36005	-88.20831	1020.63953	750.47668	-108.28017
1648	6.58800	922.95221	1417.43726	173.88976	1001.73523	1347.61682	343.73969	967.11981	1368.65454	-26.22697	1066.06030	1304.98816	146.26509	964.97009	1145.04041	399.23453	975.13715	1077.12244	408.02774	938.72400	1031.49146	329.86893	1057.45459	987.40881	379.11365	1161.07581	1016.68164	388.46439	1234.64941	1082.97644	273.80191	1239.67224	977.64075	392.09210	967.59833	1146.08215	-69.90421	974.66870	1061.24829	-84.32765	913.96533	1036.54102	-2.63360	929.95868	918.18927	-93.55798	1007.43652	828.80719	-85.57858	934.20654	817.40991	-88.11799	1020.59674	750.52911	-108.19289
